<svg width="32" height="33" viewBox="0 0 32 33" fill="none" xmlns="http://www.w3.org/2000/svg">
<path d="M16 11.5991C13 11.5991 10.6094 14.0366 10.6094 16.9897C10.6094 19.9897 13 22.3804 16 22.3804C18.9531 22.3804 21.3906 19.9897 21.3906 16.9897C21.3906 14.0366 18.9531 11.5991 16 11.5991ZM16 20.5054C14.0781 20.5054 12.4844 18.9585 12.4844 16.9897C12.4844 15.0679 14.0312 13.521 16 13.521C17.9219 13.521 19.4688 15.0679 19.4688 16.9897C19.4688 18.9585 17.9219 20.5054 16 20.5054ZM22.8438 11.4116C22.8438 10.7085 22.2812 10.146 21.5781 10.146C20.875 10.146 20.3125 10.7085 20.3125 11.4116C20.3125 12.1147 20.875 12.6772 21.5781 12.6772C22.2812 12.6772 22.8438 12.1147 22.8438 11.4116ZM26.4062 12.6772C26.3125 10.9897 25.9375 9.48975 24.7188 8.271C23.5 7.05225 22 6.67725 20.3125 6.5835C18.5781 6.48975 13.375 6.48975 11.6406 6.5835C9.95312 6.67725 8.5 7.05225 7.23438 8.271C6.01562 9.48975 5.64062 10.9897 5.54688 12.6772C5.45312 14.4116 5.45312 19.6147 5.54688 21.3491C5.64062 23.0366 6.01562 24.4897 7.23438 25.7554C8.5 26.9741 9.95312 27.3491 11.6406 27.4429C13.375 27.5366 18.5781 27.5366 20.3125 27.4429C22 27.3491 23.5 26.9741 24.7188 25.7554C25.9375 24.4897 26.3125 23.0366 26.4062 21.3491C26.5 19.6147 26.5 14.4116 26.4062 12.6772ZM24.1562 23.1772C23.8281 24.1147 23.0781 24.8179 22.1875 25.1929C20.7812 25.7554 17.5 25.6147 16 25.6147C14.4531 25.6147 11.1719 25.7554 9.8125 25.1929C8.875 24.8179 8.17188 24.1147 7.79688 23.1772C7.23438 21.8179 7.375 18.5366 7.375 16.9897C7.375 15.4897 7.23438 12.2085 7.79688 10.8022C8.17188 9.91162 8.875 9.2085 9.8125 8.8335C11.1719 8.271 14.4531 8.41162 16 8.41162C17.5 8.41162 20.7812 8.271 22.1875 8.8335C23.0781 9.16162 23.7812 9.91162 24.1562 10.8022C24.7188 12.2085 24.5781 15.4897 24.5781 16.9897C24.5781 18.5366 24.7188 21.8179 24.1562 23.1772Z" fill="black"/>
</svg>
