<svg width="32" height="32" viewBox="0 0 32 32" fill="none" xmlns="http://www.w3.org/2000/svg">
<path d="M10.1875 24.9902V10.9746H5.82812V24.9902H10.1875ZM7.98438 9.09961C9.39062 9.09961 10.5156 7.92773 10.5156 6.52148C10.5156 5.16211 9.39062 4.03711 7.98438 4.03711C6.625 4.03711 5.5 5.16211 5.5 6.52148C5.5 7.92773 6.625 9.09961 7.98438 9.09961ZM26.4531 24.9902H26.5V17.3027C26.5 13.5527 25.6562 10.6465 21.25 10.6465C19.1406 10.6465 17.7344 11.8184 17.125 12.8965H17.0781V10.9746H12.9062V24.9902H17.2656V18.0527C17.2656 16.2246 17.5938 14.4902 19.8438 14.4902C22.0938 14.4902 22.1406 16.5527 22.1406 18.1934V24.9902H26.4531Z" fill="black"/>
</svg>
