<svg width="32" height="33" viewBox="0 0 32 33" fill="none" xmlns="http://www.w3.org/2000/svg">
<path d="M19 25.9897H9V23.9897H19V25.9897ZM25 14.3247L23.379 4.98975L21.386 5.33575L23.006 14.6707L25 14.3247ZM19.036 21.2617L9.29 20.2867L9.104 22.3027L18.859 23.1817L19.036 21.2617ZM19.574 18.6747L10.298 16.0667L9.772 18.0207L19.078 20.5207L19.574 18.6747ZM20.778 16.2617L12.481 11.3977L11.452 13.1407L19.75 18.0057L20.778 16.2617ZM22.644 14.7947L17.305 6.96575L15.633 8.10575L20.972 15.9347L22.644 14.7947ZM20 18.9897V26.9897H8V18.9897H6V28.9897H22V18.9897H20Z" fill="black"/>
</svg>
