<svg width="31" height="30" viewBox="0 0 31 30" fill="none" xmlns="http://www.w3.org/2000/svg">
<path d="M15.5 21L21.5 15L19.4 12.9L17 15.3V9H14V15.3L11.6 12.9L9.5 15L15.5 21ZM15.5 30C13.425 30 11.475 29.6062 9.65 28.8187C7.825 28.0312 6.2375 26.9625 4.8875 25.6125C3.5375 24.2625 2.46875 22.675 1.68125 20.85C0.89375 19.025 0.5 17.075 0.5 15C0.5 12.925 0.89375 10.975 1.68125 9.15C2.46875 7.325 3.5375 5.7375 4.8875 4.3875C6.2375 3.0375 7.825 1.96875 9.65 1.18125C11.475 0.39375 13.425 0 15.5 0C17.575 0 19.525 0.39375 21.35 1.18125C23.175 1.96875 24.7625 3.0375 26.1125 4.3875C27.4625 5.7375 28.5312 7.325 29.3187 9.15C30.1062 10.975 30.5 12.925 30.5 15C30.5 17.075 30.1062 19.025 29.3187 20.85C28.5312 22.675 27.4625 24.2625 26.1125 25.6125C24.7625 26.9625 23.175 28.0312 21.35 28.8187C19.525 29.6062 17.575 30 15.5 30ZM15.5 27C18.85 27 21.6875 25.8375 24.0125 23.5125C26.3375 21.1875 27.5 18.35 27.5 15C27.5 11.65 26.3375 8.8125 24.0125 6.4875C21.6875 4.1625 18.85 3 15.5 3C12.15 3 9.3125 4.1625 6.9875 6.4875C4.6625 8.8125 3.5 11.65 3.5 15C3.5 18.35 4.6625 21.1875 6.9875 23.5125C9.3125 25.8375 12.15 27 15.5 27Z" fill="black"/>
</svg>
