<svg width="32" height="32" viewBox="0 0 32 32" fill="none" xmlns="http://www.w3.org/2000/svg">
<path d="M15.995 31.4951C24.47 31.4951 31.49 24.4902 31.49 16.0002C31.49 7.52513 24.47 0.505127 15.98 0.505127C7.505 0.505127 0.5 7.52513 0.5 16.0002C0.5 24.4902 7.52 31.4951 15.995 31.4951ZM6.965 6.56513C8.465 5.14013 10.28 4.04513 12.305 3.44513C11.24 4.51013 10.34 6.01013 9.665 7.84012C8.615 7.51013 7.71501 7.07513 6.965 6.56513ZM19.7001 3.46013C21.71 4.06013 23.525 5.14013 25.01 6.56513C24.275 7.09012 23.3751 7.51013 22.325 7.85512C21.65 6.01013 20.75 4.51013 19.7001 3.46013ZM17.045 3.94013C18.29 4.54013 19.43 6.16012 20.24 8.36513C19.25 8.54512 18.185 8.65013 17.045 8.69512V3.94013ZM11.75 8.36513C12.575 6.16012 13.7001 4.54013 14.945 3.94013V8.69512C13.805 8.65013 12.74 8.54512 11.75 8.36513ZM2.945 14.9502C3.15501 12.4001 4.11501 10.0451 5.585 8.11013C6.5 8.78512 7.685 9.37013 9.065 9.80513C8.67501 11.3651 8.42 13.1051 8.345 14.9502H2.945ZM23.645 14.9502C23.57 13.1051 23.315 11.3651 22.925 9.80513C24.305 9.37013 25.49 8.80012 26.39 8.11013C27.875 10.0451 28.835 12.4001 29.045 14.9502H23.645ZM10.49 14.9502C10.565 13.3151 10.79 11.7551 11.135 10.3451C12.335 10.5851 13.6099 10.7351 14.945 10.7951V14.9502H10.49ZM17.045 14.9502V10.7951C18.38 10.7351 19.655 10.5851 20.855 10.3451C21.2 11.7551 21.425 13.3151 21.5 14.9502H17.045ZM2.945 17.0502H8.345C8.42 18.9251 8.67501 20.6801 9.065 22.2552C7.7 22.6901 6.53 23.2601 5.63 23.9352C4.13 21.9851 3.15501 19.6152 2.945 17.0502ZM10.49 17.0502H14.945V21.2802C13.625 21.3401 12.335 21.4901 11.15 21.7151C10.79 20.2901 10.55 18.7001 10.49 17.0502ZM17.045 21.2802V17.0502H21.5C21.44 18.7001 21.2 20.2901 20.84 21.7151C19.655 21.4901 18.38 21.3401 17.045 21.2802ZM22.925 22.2552C23.33 20.6801 23.57 18.9251 23.645 17.0502H29.045C28.835 19.6152 27.8601 21.9851 26.36 23.9352C25.4601 23.2601 24.29 22.6901 22.925 22.2552ZM17.045 23.3801C18.1699 23.4251 19.235 23.5302 20.21 23.7101C19.4 25.8701 18.275 27.4751 17.045 28.0601V23.3801ZM11.78 23.7101C12.755 23.5302 13.82 23.4251 14.945 23.3801V28.0601C13.715 27.4751 12.59 25.8701 11.78 23.7101ZM7.00999 25.4801C7.745 24.9702 8.645 24.5502 9.68 24.2201C10.355 26.0201 11.24 27.4901 12.275 28.5401C10.295 27.9401 8.495 26.8752 7.00999 25.4801ZM22.31 24.2201C23.345 24.5502 24.245 24.9702 24.9801 25.4801C23.495 26.8752 21.6949 27.9401 19.715 28.5401C20.75 27.4901 21.635 26.0201 22.31 24.2201Z" fill="white"/>
</svg>
